/* XPM */
static char *nanonoise[] = {
/* columns rows colors chars-per-pixel */
"80 80 3 1",
"  c black",
". c #EFEFEF",
"X c gray100",
/* pixels */
"................................................................................",
"................................................................................",
"................................................................................",
"                                                                                ",
"                                                                                ",
"XXXX XXXXXXXXXX            XXXXXX            XXXXXXXXXXXXX XXXXXXXXXX           ",
"XXXX XXXXXXXXXX            XXXXXX            XXXXXXXXXXXXX XXXXXXXXXX           ",
"XXXX XXXXXXXXXX            XXXXXX            XXXXXXXXXXXXX XXXXXXXXXX           ",
"XXXX XXXXXXXXXX            XXXXXX            XXXXXXXXXXXXX XXXXXXXXXX           ",
"XXXX XXXXXXXXXX            XXXXXX            XXXXXXXXXXXXX XXXXXXXXXX           ",
"XXXX XXXXXXXXXX            XXXXXX            XXXXXXXXXXXXX XXXXXXXXXX           ",
"XXXX XXXXXXXXXX            XXXXXX            XXXXXXXXXXXXX XXXXXXXXXX           ",
"XXXX XXXXXXXXXX            XXXXXX            XXXXXXXXXXXXX XXXXXXXXXX           ",
"XXXX XXXXXXXXXX            XXXXXX            XXXXXXXXXXXXX XXXXXXXXXX           ",
"XXXX XXXXXXXXXX            XXXXXX            XXXXXXXXXXXXX XXXXXXXXXX           ",
"XXXX XXXXXXXXXX            XXXXXX            XXXXXXXXXXXXX XXXXXXXXXX           ",
"XXXX XXXXXXXXXX            XXXXXX            XXXXXXXXXXXXX XXXXXXXXXX           ",
"XXXX XXXXXXXXXX            XXXXXX            XXXXXXXXXXXXX XXXXXXXXXX           ",
"XXXX XXXXXXXXXX            XXXXXX            XXXXXXXXXXXXX XXXXXXXXXX           ",
"XXXX XXXXXXXXXX            XXXXXX            XXXXXXXXXXXXX XXXXXXXXXX           ",
"XXXX XXXXXXXXXX            XXXXXX            XXXXXXXXXXXXX XXXXXXXXXX           ",
"XXXX XXXXXXXXXX            XXXXXX            XXXXXXXXXXXXX XXXXXXXXXX           ",
"XXXX XXXXXXXXXX            XXXXXX            XXXXXXXXXXXXX XXXXXXXXXX           ",
"XXXX XXXXXXXXXX            XXXXXX            XXXXXXXXXXXXX XXXXXXXXXX           ",
"XXXX XXXXXXXXXX            XXXXXX            XXXXXXXXXXXXX XXXXXXXXXX           ",
"XXXX XXXXXXXXXX            XXXXXX            XXXXXXXXXXXXX XXXXXXXXXX           ",
"XXXX XXXXXXXXXX            XXXXXX            XXXXXXXXXXXXX XXXXXXXXXX           ",
"XXXX XXXXXXXXXX            XXXXXX            XXXXXXXXXXXXX XXXXXXXXXX           ",
"XXXX XXXXXXXXXX            XXXXXX            XXXXXXXXXXXXX XXXXXXXXXX           ",
"XXXX XXXXXXXXXX            XXXXXX            XXXXXXXXXXXXX XXXXXXXXXX           ",
"XXXX XXXXXXXXXX            XXXXXX            XXXXXXXXXXXXX XXXXXXXXXX           ",
"XXXX XXXXXXXXXX            XXXXXX            XXXXXXXXXXXXX XXXXXXXXXX           ",
"XXXX XXXXXXXXXX            XXXXXX            XXXXXXXXXXXXX XXXXXXXXXX           ",
"XXXX XXXXXXXXXX            XXXXXX            XXXXXXXXXXXXX XXXXXXXXXX           ",
"XXXX XXXXXXXXXX            XXXXXX            XXXXXXXXXXXXX XXXXXXXXXX           ",
"XXXX XXXXXXXXXX            XXXXXX            XXXXXXXXXXXXX XXXXXXXXXX           ",
"XXXX XXXXXXXXXX            XXXXXX            XXXXXXXXXXXXX XXXXXXXXXX           ",
"XXXX XXXXXXXXXX            XXXXXX            XXXXXXXXXXXXX XXXXXXXXXX           ",
"XXXX XXXXXXXXXX            XXXXXX            XXXXXXXXXXXXX XXXXXXXXXX           ",
"XXXX XXXXXXXXXX            XXXXXX            XXXXXXXXXXXXX XXXXXXXXXX           ",
"XXXX XXXXXXXXXX            XXXXXX            XXXXXXXXXXXXX XXXXXXXXXX           ",
"XXXX XXXXXXXXXX            XXXXXX            XXXXXXXXXXXXX XXXXXXXXXX           ",
"XXXX XXXXXXXXXX            XXXXXX            XXXXXXXXXXXXX XXXXXXXXXX           ",
"XXXX XXXXXXXXXX            XXXXXX            XXXXXXXXXXXXX XXXXXXXXXX           ",
"XXXX XXXXXXXXXX            XXXXXX            XXXXXXXXXXXXX XXXXXXXXXX           ",
"XXXX XXXXXXXXXX            XXXXXX            XXXXXXXXXXXXX XXXXXXXXXX           ",
"XXXX XXXXXXXXXXXXXXXXXXXXXXXXXXXXXXXXXXXXXXXXXXXXXXXXXXXXX XXXXXXXXXXXXXXXXXXXXX",
"XXXX XXXXXXXXXXXXXXXXX XXXXXXXXXXXXXXXXX XXXXXXXXXXXXXXXXX XXXXXXXXXXXXXXXXX XXX",
"XXXX XXXXXXXXXXXXXXXXX XXXXXXXXXXXXXXXXX XXXXXXXXXXXXXXXXX XXXXXXXXXXXXXXXXX XXX",
"XXXX XXXXXXXXXXXXXXXXX XXXXXXXXXXXXXXXXX XXXXXXXXXXXXXXXXX XXXXXXXXXXXXXXXXX XXX",
"XXXX XXXXXXXXXXXXXXXXX XXXXXXXXXXXXXXXXX XXXXXXXXXXXXXXXXX XXXXXXXXXXXXXXXXX XXX",
"XXXX XXXXXXXXXXXXXXXXX XXXXXXXXXXXXXXXXX XXXXXXXXXXXXXXXXX XXXXXXXXXXXXXXXXX XXX",
"XXXX XXXXXXXXXXXXXXXXX XXXXXXXXXXXXXXXXX XXXXXXXXXXXXXXXXX XXXXXXXXXXXXXXXXX XXX",
"XXXX XXXXXXXXXXXXXXXXX XXXXXXXXXXXXXXXXX XXXXXXXXXXXXXXXXX XXXXXXXXXXXXXXXXX XXX",
"XXXX XXXXXXXXXXXXXXXXX XXXXXXXXXXXXXXXXX XXXXXXXXXXXXXXXXX XXXXXXXXXXXXXXXXX XXX",
"XXXX XXXXXXXXXXXXXXXXX XXXXXXXXXXXXXXXXX XXXXXXXXXXXXXXXXX XXXXXXXXXXXXXXXXX XXX",
"XXXX XXXXXXXXXXXXXXXXX XXXXXXXXXXXXXXXXX XXXXXXXXXXXXXXXXX XXXXXXXXXXXXXXXXX XXX",
"XXXX XXXXXXXXXXXXXXXXX XXXXXXXXXXXXXXXXX XXXXXXXXXXXXXXXXX XXXXXXXXXXXXXXXXX XXX",
"XXXX XXXXXXXXXXXXXXXXX XXXXXXXXXXXXXXXXX XXXXXXXXXXXXXXXXX XXXXXXXXXXXXXXXXX XXX",
"XXXX XXXXXXXXXXXXXXXXX XXXXXXXXXXXXXXXXX XXXXXXXXXXXXXXXXX XXXXXXXXXXXXXXXXX XXX",
"XXXX XXXXXXXXXXXXXXXXX XXXXXXXXXXXXXXXXX XXXXXXXXXXXXXXXXX XXXXXXXXXXXXXXXXX XXX",
"XXXX XXXXXXXXXXXXXXXXX XXXXXXXXXXXXXXXXX XXXXXXXXXXXXXXXXX XXXXXXXXXXXXXXXXX XXX",
"XXXX XXXXXXXXXXXXXXXXX XXXXXXXXXXXXXXXXX XXXXXXXXXXXXXXXXX XXXXXXXXXXXXXXXXX XXX",
"XXXX XXXXXXXXXXXXXXXXX XXXXXXXXXXXXXXXXX XXXXXXXXXXXXXXXXX XXXXXXXXXXXXXXXXX XXX",
"XXXX XXXXXXXXXXXXXXXXX XXXXXXXXXXXXXXXXX XXXXXXXXXXXXXXXXX XXXXXXXXXXXXXXXXX XXX",
"XXXX XXXXXXXXXXXXXXXXX XXXXXXXXXXXXXXXXX XXXXXXXXXXXXXXXXX XXXXXXXXXXXXXXXXX XXX",
"XXXX XXXXXXXXXXXXXXXXX XXXXXXXXXXXXXXXXX XXXXXXXXXXXXXXXXX XXXXXXXXXXXXXXXXX XXX",
"XXXX XXXXXXXXXXXXXXXXX XXXXXXXXXXXXXXXXX XXXXXXXXXXXXXXXXX XXXXXXXXXXXXXXXXX XXX",
"XXXX XXXXXXXXXXXXXXXXX XXXXXXXXXXXXXXXXX XXXXXXXXXXXXXXXXX XXXXXXXXXXXXXXXXX XXX",
"XXXX XXXXXXXXXXXXXXXXX XXXXXXXXXXXXXXXXX XXXXXXXXXXXXXXXXX XXXXXXXXXXXXXXXXX XXX",
"XXXX XXXXXXXXXXXXXXXXX XXXXXXXXXXXXXXXXX XXXXXXXXXXXXXXXXX XXXXXXXXXXXXXXXXX XXX",
"XXXX XXXXXXXXXXXXXXXXX XXXXXXXXXXXXXXXXX XXXXXXXXXXXXXXXXX XXXXXXXXXXXXXXXXX XXX",
"XXXX XXXXXXXXXXXXXXXXX XXXXXXXXXXXXXXXXX XXXXXXXXXXXXXXXXX XXXXXXXXXXXXXXXXX XXX",
"XXXX XXXXXXXXXXXXXXXXX XXXXXXXXXXXXXXXXX XXXXXXXXXXXXXXXXX XXXXXXXXXXXXXXXXX XXX",
"XXXX XXXXXXXXXXXXXXXXX XXXXXXXXXXXXXXXXX XXXXXXXXXXXXXXXXX XXXXXXXXXXXXXXXXX XXX",
"                                                                                ",
"                                                                                ",
"                                                                                ",
"                                                                                ",
"................................................................................"
};
